<?xml version="1.0" ?><svg id="Layer_1" style="enable-background:new 0 0 48 48;" version="1.1" viewBox="0 0 48 48" xml:space="preserve" xmlns="http://www.w3.org/2000/svg" xmlns:xlink="http://www.w3.org/1999/xlink"><style type="text/css">
	.st0{fill:#E6E6E5;}
	.st1{fill:#B4B4B4;}
	.st2{fill:#E7B95E;}
	.st3{fill:#FFCC67;}
	.st4{fill:#EC7B72;}
	.st5{fill:#ED7161;}
	.st6{fill:#D66556;}
	.st7{fill:#98D0F1;}
	.st8{fill:#525252;}
	.st9{fill:#676767;}
</style><path class="st0" d="M45.6,0H24.2c-1.3,0-2.4,1.1-2.4,2.4v11.3c0,1.3,1.1,2.4,2.4,2.4h13.4l0.6,7.1c0,0.5,0.6,0.6,0.9,0.2l5.3-7.4  h1.3c1.3,0,2.4-1.1,2.4-2.4V2.4C48,1.1,46.9,0,45.6,0z"/><path class="st1" d="M28,10.7c-3.6,0-3.5-5.4,0-5.4C31.6,5.4,31.6,10.7,28,10.7z"/><path class="st1" d="M37.6,8c0,3.5-5.4,3.5-5.4,0C32.2,4.5,37.6,4.5,37.6,8z"/><path class="st1" d="M41.7,10.7c-3.6,0-3.5-5.4,0-5.4C45.2,5.4,45.3,10.7,41.7,10.7z"/><path class="st0" d="M29.8,43c0,3.5,0.3,2.7-1.4,5h-14l-0.8-10.3l0.2-3l1.8-0.3c2,0.8,3.5,1.6,4.3,1.6c0.6,0,4.1-0.1,4.2,0  c0.1,0.1,2.4-1.7,2.8-1.9s1.8-0.9,1.9-0.9s0.6,6.5,0.7,6.7C29.6,40.1,29.8,43,29.8,43z"/><path class="st2" d="M26.2,25.3l-1.7,1.2L23,28.9l-3.9,0.2L16.7,26c-0.1,4.4-1,5.2-1,5.2l-0.1,0.3l0.2,2.8l2.5,2.5  c0,0,3.3,1.7,3.4,1.7s2.4-0.9,2.4-0.9l2.3-2.1l1-4.3C26.2,28.8,26.2,25.3,26.2,25.3z"/><path class="st3" d="M28.1,13.9l-3.2-2.8l-5.7,0.3c-4.1,2-3.3,1.3-4.4,3.6c0.1,4.9,0.1,3.9,0.2,5.4l-0.2,0.9  c0.6,12.2,12.6,12,13.3,0C27.9,19.2,27.9,20.6,28.1,13.9z"/><path class="st3" d="M26.9,21.1c-0.7,4,2.1,4.5,2.8,0.5C30.4,17.7,27.6,17.2,26.9,21.1z"/><path class="st3" d="M16.5,21.1c0.7,4-2.1,4.5-2.8,0.5C13,17.7,15.8,17.2,16.5,21.1z"/><path class="st4" d="M28.4,12.2c-0.6-1-1.3-5.8-6.2-4.5c-0.4,0.1-0.9,0.2-1.3,0.1c-3.1-0.2-4.4,1.7-5.4,2.3  c-1.9,1.3-1.2,3.2-1.3,4.2c0,0.8-0.1,2.3,0.2,4.2c0,0,0.4,1.2,0.3,2.6h0.1c0,0,0.3-2.3,0.7-3.9c0.2-1-0.7-2.7,0.9-3.8  c0.6-0.4,1.4-0.7,2.4-0.3c0,0,2.6,1.4,5,0c2.7-1.4,3.8,0.7,3.3,2.9c-0.1,0.3,0,0.7,0.1,1c0.5,1.1,0.3,2.3,0.8,3.2V21h0.1  c0,0-0.2-1.6,0.7-2.6C28.8,18.6,29.2,13.6,28.4,12.2z"/><polygon class="st5" points="23.6,48 19.7,48 20,39.9 23.2,39.9 "/><path class="st6" d="M24.8,37.2l-1.1,2L23.2,40H20c-0.6-1-0.3-0.4-1.6-2.8l1-1.8l2.2,1.3l2.4-1.1L24.8,37.2z"/><path class="st7" d="M29.2,33.1l-4.8,6.8l-0.7-0.8l-2.1-2.4c2.4-2.2,1-1,5.8-5.5L29.2,33.1z"/><path class="st7" d="M21.6,36.7c-2.4,2.9-1.9,2.2-2.7,3.2l-4.8-6.8l1.7-1.9l4,3.7L21.6,36.7z"/><path class="st8" d="M43.2,45c-2.4-8.6-1.7-8.3-11.5-12.2l-4.1-1c0.5,4.3-0.8,11.3-2,16.2h15.3C42.5,48,43.6,46.5,43.2,45z"/><path class="st9" d="M32.7,35.2c0,0-0.4,5.5-4.8,12.8h-2.4c1-4.4,2.7-12.3,1.9-16.8l4.2,1.6c-0.2,0.2-1.5,1-1.7,1.2L32.7,35.2z"/><path class="st8" d="M15.7,31.9l-4.1,1L6.3,35c-4.5,1.8-5,5.6-6.2,10c-0.4,1.5,0.7,3,2.3,3h15.3C16.6,43.2,15.2,36.2,15.7,31.9z"/><path class="st9" d="M10.5,35.2c0,0,0.4,5.5,4.8,12.8h2.4c-1.1-4.9-2.5-11.9-2-16.2c0-0.2,0.1-0.4,0.1-0.6l-4.2,1.6l0.2,0.1l1.5,1.1  L10.5,35.2z"/></svg>